<?xml version="1.0" standalone="no"?>
<!DOCTYPE svg PUBLIC "-//W3C//DTD SVG 20010904//EN"
 "http://www.w3.org/TR/2001/REC-SVG-20010904/DTD/svg10.dtd">
<svg version="1.0" xmlns="http://www.w3.org/2000/svg"
 width="1024.000000pt" height="1024.000000pt" viewBox="0 0 1024.000000 1024.000000"
 preserveAspectRatio="xMidYMid meet">

<g transform="translate(0.000000,1024.000000) scale(0.100000,-0.100000)"
fill="#000000" stroke="none">
<path d="M4531 8854 c-23 -8 -64 -28 -90 -44 -38 -24 -53 -28 -89 -23 -52 7
-124 -18 -151 -53 -11 -14 -32 -56 -47 -94 -30 -77 -71 -133 -115 -156 -27
-13 -36 -13 -89 0 -70 18 -215 89 -309 151 -97 65 -116 66 -214 16 -125 -64
-218 -131 -239 -172 -10 -20 -27 -81 -37 -135 -11 -55 -37 -144 -60 -197 -85
-205 -84 -311 5 -434 14 -20 13 -23 -21 -49 -52 -40 -83 -98 -95 -183 -11 -80
-19 -98 -90 -208 -65 -98 -68 -145 -15 -238 22 -41 38 -85 44 -126 12 -83 22
-108 78 -193 61 -90 261 -293 340 -344 76 -49 93 -53 378 -93 127 -18 233 -35
237 -38 4 -4 17 -38 29 -77 l21 -70 -65 -86 c-36 -48 -87 -123 -114 -167 -26
-44 -50 -80 -53 -81 -3 0 -60 71 -127 158 -162 210 -181 227 -241 226 -76 -1
-171 -54 -277 -155 l-90 -87 -40 35 c-49 43 -144 90 -200 98 -27 5 -54 1 -83
-10 -33 -14 -48 -15 -73 -6 -17 6 -49 8 -71 5 -123 -20 -175 -142 -132 -307
l16 -62 -42 -72 c-25 -44 -44 -90 -47 -115 -5 -42 -2 -46 206 -328 116 -157
231 -306 256 -331 49 -50 140 -103 195 -114 26 -5 44 -18 68 -51 41 -56 103
-101 156 -115 23 -6 60 -26 83 -45 57 -47 119 -74 171 -74 32 0 56 -9 95 -35
28 -19 59 -35 67 -35 8 0 35 14 60 30 25 16 47 30 50 30 3 0 3 -52 2 -117 -5
-158 2 -199 42 -239 40 -40 168 -82 278 -91 l77 -6 10 -49 c6 -27 11 -57 11
-67 0 -22 -226 -141 -268 -141 -48 0 -144 -29 -220 -66 -121 -59 -224 -169
-267 -285 l-17 -47 -56 22 c-49 18 -78 21 -197 21 -155 -1 -222 -16 -318 -76
-27 -16 -50 -29 -51 -29 -2 0 -9 21 -15 46 -42 167 -170 294 -342 339 -64 17
-197 19 -271 4 -74 -15 -204 -80 -260 -128 l-47 -42 -50 36 c-73 53 -150 77
-261 83 -117 6 -187 -8 -283 -55 -136 -69 -258 -221 -327 -410 -70 -194 -104
-384 -122 -678 -18 -315 18 -701 79 -837 33 -75 130 -168 199 -192 112 -38
237 -30 351 23 107 50 164 108 192 194 7 20 14 37 16 37 1 0 28 -12 60 -26
102 -47 282 -44 380 6 l37 19 37 -29 c135 -109 386 -83 538 54 l52 47 83 -27
c76 -25 96 -28 238 -28 141 0 162 3 236 27 44 15 109 45 143 67 l62 40 37 -19
c240 -122 657 -92 873 64 27 19 51 35 54 35 2 0 25 -13 51 -30 177 -112 524
-116 737 -10 33 16 64 30 69 30 5 0 24 -11 41 -24 116 -89 373 -122 597 -76
l98 20 43 -24 c98 -54 240 -54 341 1 l47 25 31 -22 c17 -12 52 -29 77 -36 59
-18 213 -18 281 0 56 15 130 55 152 81 12 14 18 12 54 -24 175 -171 684 -200
915 -52 26 17 56 40 66 51 25 28 36 25 80 -21 126 -130 394 -215 599 -189 165
21 289 83 411 205 119 120 191 258 232 445 22 105 26 449 5 545 -43 197 -100
313 -207 421 -64 65 -97 90 -165 123 -135 65 -189 76 -380 76 -160 0 -168 -1
-259 -33 -52 -18 -95 -31 -96 -30 -1 2 -7 41 -14 88 -18 128 -60 288 -92 351
-50 100 -158 176 -279 195 -40 7 -40 7 -33 43 15 72 6 272 -16 356 -59 224
-196 396 -386 486 -128 62 -189 74 -355 73 -129 0 -154 -3 -225 -27 -107 -35
-194 -88 -275 -167 -98 -95 -157 -194 -205 -344 -5 -17 -12 -11 -45 35 -40 54
-96 174 -106 227 -6 28 -4 29 36 35 106 14 319 146 456 282 223 222 258 405
128 670 -58 119 -153 245 -290 382 l-112 113 -11 82 c-17 118 -29 157 -63 210
-58 92 -68 160 -68 472 l0 279 36 39 c48 54 64 95 64 170 0 112 -65 208 -162
240 l-39 13 -3 80 c-3 95 -29 161 -84 218 -46 48 -82 67 -128 69 -20 1 -37 6
-39 12 -1 6 -8 30 -14 54 -23 82 -103 145 -221 172 -30 7 -71 21 -91 31 -57
28 -122 109 -158 195 -43 103 -79 154 -152 214 -73 61 -138 95 -220 116 -33 9
-76 26 -95 39 -44 30 -107 40 -198 30 -39 -4 -78 -6 -86 -6 -151 11 -188 10
-229 -5z m333 -149 c-17 -13 -15 -14 36 -16 30 0 78 -4 105 -8 46 -7 48 -8 22
-15 -15 -5 -39 -6 -52 -4 -14 3 -25 2 -25 -1 0 -3 -52 -7 -115 -8 -159 -2
-281 -42 -427 -140 -70 -47 -110 -91 -166 -179 -38 -61 -77 -97 -120 -112
l-32 -11 49 63 c52 68 88 154 117 276 18 78 32 77 33 -2 1 -21 4 -38 7 -38 3
0 29 22 57 49 81 78 145 124 158 115 7 -4 9 -3 6 3 -4 6 5 15 19 22 33 15 39
14 24 -4 -7 -8 -17 -12 -23 -8 -6 4 -7 1 -2 -6 4 -7 -2 -22 -16 -37 -23 -24
-20 -46 3 -26 43 35 251 100 322 101 37 1 39 0 20 -14z m358 -109 c67 -32 158
-142 158 -190 0 -9 20 -46 44 -83 62 -96 82 -139 113 -240 24 -79 27 -104 27
-243 1 -144 -1 -160 -27 -233 -15 -42 -38 -95 -52 -117 -14 -22 -23 -40 -21
-40 18 0 78 34 94 54 11 14 23 22 27 18 5 -4 5 -2 2 4 -3 6 6 39 20 75 41 99
44 267 9 447 -6 26 200 -171 263 -253 38 -49 141 -233 141 -251 0 -5 -5 -2
-10 6 -5 8 -10 10 -10 4 0 -6 3 -14 7 -18 11 -10 14 -48 4 -41 -5 3 -12 1 -16
-5 -11 -18 -25 -11 -40 23 l-15 32 6 -30 c3 -16 12 -40 20 -52 19 -30 62 -31
72 -2 7 17 11 11 24 -33 25 -84 41 -159 34 -165 -3 -4 -6 0 -6 8 0 8 -16 24
-35 37 l-35 22 0 -21 c0 -23 64 -102 74 -91 3 3 6 0 6 -7 0 -7 4 -10 9 -6 11
6 26 -79 16 -94 -3 -6 -1 -11 4 -11 6 0 11 -12 11 -26 l0 -25 -26 20 c-54 42
-187 69 -239 48 -16 -7 -1 -15 73 -42 103 -37 146 -61 137 -76 -13 -20 -109
-61 -173 -73 l-67 -12 50 -26 c28 -14 62 -39 77 -55 l28 -29 -20 -39 c-33 -67
-117 -173 -161 -205 -59 -43 -110 -54 -178 -41 -30 6 -56 9 -59 6 -2 -2 3 -22
12 -45 21 -53 21 -87 -1 -94 -25 -8 -202 -23 -498 -42 -257 -17 -458 -15 -735
6 -272 21 -879 104 -921 125 -40 21 -141 117 -231 220 -79 90 -145 202 -135
228 4 10 38 19 105 27 86 11 125 11 269 -3 321 -32 490 -40 868 -40 379 0 603
11 785 39 118 18 137 24 280 87 146 64 225 72 365 37 50 -12 96 -25 103 -27 6
-3 12 0 12 5 0 6 -34 28 -76 48 -64 32 -87 38 -159 42 -98 5 -135 -3 -299 -64
-210 -79 -411 -98 -1031 -97 -413 0 -560 7 -863 40 -128 14 -170 14 -259 5
-123 -14 -121 -15 -167 70 l-29 54 57 88 c67 102 82 134 91 198 l7 47 33 -24
c46 -36 65 -33 65 9 0 58 -7 66 -59 66 l-46 0 72 68 c40 37 101 111 138 167
143 212 286 376 464 534 l64 56 111 1 c61 0 120 4 131 8 16 6 17 6 5 -3 -11
-8 -11 -11 -2 -11 7 0 15 7 18 15 4 8 10 15 15 15 22 0 -35 -81 -100 -141 -39
-37 -71 -71 -71 -78 0 -30 223 11 336 63 30 14 51 20 47 13 -13 -22 -167 -211
-236 -289 -70 -80 -151 -153 -328 -298 -135 -110 -222 -190 -206 -189 6 0 54
26 105 57 248 153 382 271 562 497 197 247 337 404 401 450 176 126 449 189
571 131z m-1502 -191 c30 -15 57 -29 59 -31 3 -2 -34 -43 -80 -92 -47 -48
-103 -109 -125 -135 l-40 -48 -17 78 c-24 110 -98 250 -84 161 l6 -38 -44 0
c-24 0 -55 -4 -69 -10 -31 -11 -33 -1 -15 80 10 45 17 56 56 83 24 18 67 44
95 59 l52 27 76 -53 c42 -30 100 -66 130 -81z m810 51 c0 -2 -8 -10 -17 -17
-16 -13 -17 -12 -4 4 13 16 21 21 21 13z m-1215 -336 c36 -14 50 -55 30 -87
-22 -33 -57 -47 -99 -39 -27 5 -36 12 -36 26 0 33 31 99 48 103 28 8 30 7 57
-3z m2750 -300 c3 -5 1 -10 -4 -10 -6 0 -11 5 -11 10 0 6 2 10 4 10 3 0 8 -4
11 -10z m186 -367 c13 -16 12 -17 -3 -4 -10 7 -18 15 -18 17 0 8 8 3 21 -13z
m-148 -570 c2 -5 -6 -50 -19 -102 -40 -153 -121 -321 -156 -321 -9 0 -50 -12
-90 -27 -82 -31 -220 -129 -334 -239 -77 -75 -187 -216 -214 -277 -13 -28 -34
-48 -84 -78 -37 -22 -70 -38 -73 -35 -8 8 95 173 147 235 141 166 262 271 345
297 l55 18 0 47 0 47 63 4 c62 4 66 5 136 68 40 36 82 82 92 103 11 21 24 35
30 32 5 -4 6 -12 2 -18 -4 -7 0 -6 10 2 18 14 23 26 8 16 -23 -14 -19 18 6 52
25 33 28 44 27 110 -1 70 -1 73 22 73 12 0 25 -3 27 -7z m85 -75 c0 -40 -3
-48 -9 -33 -7 15 -8 12 -4 -13 3 -23 1 -31 -7 -26 -7 5 -9 -3 -5 -27 3 -19 1
-43 -4 -54 -7 -15 -7 -11 -3 14 8 44 -10 33 -27 -17 -13 -40 -37 -83 -54 -94
-6 -5 -6 -8 0 -8 7 0 7 -3 0 -8 -5 -4 -23 -32 -39 -62 -30 -58 -122 -190 -191
-276 -53 -65 -93 -136 -144 -254 -61 -139 -118 -189 -223 -192 l-53 -1 45 -7
c45 -7 44 -7 -17 -8 -46 -2 -63 2 -63 11 0 25 24 37 75 37 104 0 155 32 195
123 68 153 93 202 140 271 30 46 55 74 62 70 6 -4 8 -3 4 4 -7 11 101 168 114
165 4 -1 7 3 6 10 0 7 25 64 56 127 31 63 66 151 78 195 28 107 27 105 49 105
17 0 20 -7 19 -52z m14 -210 c-8 -8 -9 -4 -5 13 4 13 8 18 11 10 2 -7 -1 -18
-6 -23z m-41 -95 c-12 -20 -14 -14 -5 12 4 9 9 14 11 11 3 -2 0 -13 -6 -23z
m83 -18 c3 -8 1 -15 -4 -15 -6 0 -10 7 -10 15 0 8 2 15 4 15 2 0 6 -7 10 -15z
m-8 -71 c36 -13 45 -22 69 -75 27 -61 50 -209 32 -209 -5 0 -34 20 -65 44 -75
57 -130 77 -214 78 l-69 0 19 22 c11 11 41 54 67 94 46 72 47 73 83 67 20 -4
56 -13 78 -21z m-408 -121 c-67 -91 -89 -113 -138 -139 -110 -59 -250 -174
-250 -205 0 -6 19 5 43 24 52 42 151 108 194 131 l33 16 -26 -57 c-14 -32 -35
-80 -46 -108 -29 -74 -33 -77 -81 -54 -23 10 -65 19 -92 19 -28 0 -56 5 -63
12 -9 9 -16 7 -31 -6 -11 -10 -27 -16 -36 -13 -25 10 17 69 140 195 122 127
240 221 330 264 111 52 114 42 23 -79z m-366 -5 c-22 -18 -68 -56 -101 -85
-51 -44 -77 -57 -159 -83 -119 -37 -308 -78 -399 -86 l-68 -6 -171 85 c-95 46
-201 95 -238 108 -55 20 -66 28 -66 47 0 12 7 25 15 28 8 3 58 -4 112 -16 121
-27 325 -78 347 -86 10 -4 16 -1 16 9 0 8 -30 31 -67 51 l-68 36 80 -6 c46 -4
173 1 295 10 118 9 256 18 305 19 50 2 116 4 149 5 l59 2 -41 -32z m-1335 -6
c7 -5 24 -40 37 -79 79 -231 317 -573 444 -635 41 -20 61 -23 150 -22 56 1
102 -1 102 -5 0 -13 -90 -31 -154 -31 -65 0 -130 16 -121 30 3 4 -3 6 -13 3
-43 -11 -253 260 -358 460 -53 103 -71 145 -98 238 -15 49 -13 56 11 41z
m2061 -98 c28 -12 52 -24 52 -26 0 -2 -39 -3 -88 -3 -75 0 -95 -4 -144 -28
-97 -47 -200 -185 -214 -283 -5 -37 -3 -35 36 36 108 193 218 260 383 231 94
-16 139 -43 248 -154 298 -302 413 -530 351 -695 -83 -218 -451 -479 -616
-438 -19 5 -26 13 -26 30 0 40 -58 141 -120 209 -79 86 -119 110 -171 105
l-41 -4 6 39 c17 103 72 157 243 238 113 53 148 79 107 79 -9 0 -58 -18 -109
-39 -84 -36 -95 -39 -136 -30 -57 13 -129 60 -179 116 -26 30 -45 43 -55 39
-23 -8 -18 -22 22 -66 l36 -41 -68 25 c-38 14 -72 23 -77 20 -18 -12 -5 -23
45 -40 48 -16 237 -93 246 -101 2 -1 -12 -19 -32 -40 -49 -49 -80 -116 -85
-184 l-4 -56 -69 -22 c-79 -25 -161 -93 -215 -177 -26 -41 -38 -51 -56 -48
-13 2 -53 8 -91 15 -98 17 -101 13 -94 -126 6 -116 35 -247 65 -299 23 -39 73
-73 121 -82 20 -4 76 -1 126 6 49 8 153 14 230 14 135 1 142 2 188 29 49 29
107 104 107 139 0 10 5 18 10 18 6 0 10 -5 10 -11 0 -6 29 -71 65 -145 36 -74
65 -139 65 -144 0 -5 -15 -20 -33 -34 -86 -66 -289 -141 -462 -171 -190 -33
-477 -14 -679 45 -80 23 -77 12 4 -18 150 -54 234 -66 450 -67 220 0 289 9
447 61 79 26 215 87 265 121 20 13 31 14 39 6 13 -13 -97 -84 -201 -131 -316
-142 -625 -154 -1029 -37 -67 19 -130 39 -141 45 -27 14 -35 116 -34 430 0
198 4 295 18 385 27 185 62 357 103 502 l37 133 109 61 c60 33 110 59 112 57
1 -2 13 -30 26 -63 20 -50 22 -67 15 -102 -6 -24 -15 -43 -21 -43 -26 0 -95
-62 -139 -123 -95 -133 -184 -338 -174 -399 l4 -23 11 25 c6 14 26 62 43 107
18 45 45 103 62 130 l30 47 18 -57 c23 -72 50 -113 104 -153 53 -40 96 -54
165 -54 156 1 277 142 241 281 -14 56 -71 141 -115 170 -30 21 -33 27 -34 79
-1 30 2 78 5 107 6 48 8 52 38 57 50 10 119 58 159 113 20 28 57 98 80 156 62
149 147 258 215 273 15 3 32 7 37 9 24 7 104 -9 153 -31z m-1763 -57 c33 -14
113 -50 179 -81 107 -50 125 -56 185 -56 89 0 344 51 444 89 33 13 34 15 -36
-82 -54 -75 -68 -82 -262 -135 -192 -53 -223 -57 -254 -35 -14 10 -99 70 -188
132 -155 107 -190 141 -207 198 -7 22 -7 22 36 9 24 -7 70 -25 103 -39z m-345
-298 c-22 -89 -39 -168 -36 -175 3 -8 16 -19 29 -25 23 -10 25 -18 31 -116 l7
-105 -42 -56 -42 -56 -40 45 c-59 66 -157 199 -157 214 0 19 73 161 117 227
52 78 165 220 170 214 3 -3 -14 -78 -37 -167z m134 91 c22 -38 72 -113 112
-166 40 -53 71 -102 69 -108 -11 -33 -68 -282 -87 -383 -20 -102 -23 -151 -23
-353 0 -139 6 -274 14 -330 18 -136 57 -315 86 -400 14 -40 25 -75 25 -78 0
-2 -89 -2 -197 0 -225 6 -293 20 -293 63 0 22 0 22 58 9 63 -15 269 -19 290
-5 8 5 -40 10 -115 14 -133 6 -229 22 -236 41 -9 23 13 246 33 346 12 58 35
144 51 193 31 91 31 107 -2 107 -10 0 -19 2 -19 5 0 2 14 42 30 87 24 65 41
93 81 134 l50 51 -40 48 c-22 27 -38 52 -35 57 3 5 10 6 15 2 5 -3 9 -2 7 3
-1 4 9 25 22 47 l23 38 57 -171 c54 -163 80 -220 80 -177 0 11 -21 91 -46 180
-68 236 -100 406 -77 406 4 0 33 -21 65 -46 32 -25 58 -41 58 -36 0 19 -86
106 -136 138 l-52 34 14 62 c8 35 26 105 39 156 14 52 25 96 25 98 0 18 21 -8
54 -66z m-839 6 c18 -34 18 -36 1 -55 -22 -24 -26 -17 99 -166 130 -154 295
-360 295 -369 0 -3 -6 -6 -13 -6 -16 0 -287 -264 -287 -280 0 -21 17 -7 165
134 81 76 150 135 154 130 46 -50 121 -145 120 -151 -1 -4 -57 -61 -125 -127
l-122 -119 -32 23 c-19 14 -53 25 -83 28 -47 4 -54 9 -122 81 -40 42 -142 156
-227 253 -255 292 -251 281 -142 386 44 41 125 120 180 174 56 54 106 98 111
98 6 0 18 -16 28 -34z m1112 -33 c19 -13 20 -18 11 -44 l-10 -30 -34 47 c-19
26 -34 51 -34 56 0 9 26 -3 67 -29z m1043 -28 c24 -14 22 -15 -34 -12 -37 1
-61 7 -64 15 -5 17 66 15 98 -3z m-959 -22 c13 -16 12 -17 -3 -4 -10 7 -18 15
-18 17 0 8 8 3 21 -13z m-1684 -47 c56 -58 83 -143 60 -190 -15 -32 -98 -138
-104 -133 -1 2 6 20 16 41 49 95 32 213 -42 293 l-42 46 35 -6 c23 -5 49 -22
77 -51z m-203 -7 c70 -83 89 -170 57 -264 -12 -33 -19 -46 -16 -29 10 78 -30
235 -80 309 -21 30 -22 34 -6 26 10 -6 31 -25 45 -42z m-72 24 c46 -53 78
-155 77 -248 l-1 -70 -19 40 c-39 81 -96 295 -79 295 4 0 14 -8 22 -17z m2648
-7 c0 -22 -17 -34 -125 -91 -217 -115 -381 -159 -451 -122 l-29 16 62 1 c75 0
197 37 306 92 43 21 83 36 89 32 7 -4 8 -3 4 4 -4 7 -5 12 -2 12 2 0 13 3 23
7 16 6 17 5 3 -13 -12 -17 -12 -17 0 -6 8 7 15 18 15 25 0 7 9 11 18 11 10 -1
16 1 13 4 -5 4 50 43 72 51 1 1 2 -10 2 -23z m-2454 -18 c39 -47 54 -90 54
-155 0 -58 -33 -152 -60 -168 -6 -4 -1 13 11 36 44 84 23 225 -43 296 -18 19
-19 23 -6 23 9 0 29 -15 44 -32z m1731 13 c-3 -12 9 -33 36 -62 l41 -44 9 38
c5 20 13 37 19 37 5 0 6 -4 3 -10 -3 -6 1 -7 9 -4 9 3 16 11 16 17 0 6 3 8 6
4 3 -3 1 -31 -6 -61 -11 -53 -13 -55 -33 -45 -40 21 -115 110 -110 130 3 10 8
19 10 19 3 0 3 -8 0 -19z m543 -6 c-9 -26 -90 -70 -197 -106 -104 -36 -117
-36 -110 -6 3 12 9 38 12 58 6 35 7 35 58 38 81 4 96 6 90 11 -6 6 94 27 128
26 22 -1 25 -4 19 -21z m-467 -25 c-3 -12 -8 -19 -11 -16 -5 6 5 36 12 36 2 0
2 -9 -1 -20z m-1802 -89 c18 -52 7 -133 -24 -180 -32 -49 -55 -55 -30 -8 19
34 25 170 11 237 l-8 35 20 -25 c11 -14 25 -40 31 -59z m1925 42 c-3 -21 -6
-46 -6 -55 0 -10 -7 -18 -15 -18 -18 0 -20 45 -5 84 15 41 34 32 26 -11z
m-286 -137 c10 -13 10 -17 3 -12 -27 16 -11 -8 36 -53 39 -38 53 -61 75 -125
14 -43 29 -102 32 -132 7 -58 -1 -108 -16 -99 -5 3 -7 -1 -4 -9 9 -23 -27 -25
-70 -3 -55 27 -122 19 -152 -18 -25 -32 -26 -49 6 140 19 112 70 340 74 333 1
-2 8 -12 16 -22z m940 -20 c0 -17 -7 -25 -25 -28 -14 -3 -25 -1 -25 3 0 5 9 9
20 9 13 0 20 7 20 20 0 11 2 20 5 20 3 0 5 -11 5 -24z m-480 -10 c0 -2 -7 -7
-16 -10 -8 -3 -12 -2 -9 4 6 10 25 14 25 6z m-1992 -53 c-23 -53 -44 -88 -67
-116 -14 -16 -16 -16 -38 5 -30 29 -29 35 10 52 18 7 51 34 73 59 21 26 40 46
41 47 1 0 -8 -21 -19 -47z m-248 -57 c30 -9 67 -16 83 -16 24 0 28 -4 25 -22
-3 -21 -8 -23 -60 -22 -40 1 -74 9 -112 28 -60 29 -71 45 -55 79 l11 24 27
-28 c15 -15 52 -34 81 -43z m2695 52 c6 -4 2 -8 -7 -8 -10 0 -18 7 -18 17 0 9
3 12 8 7 4 -5 12 -12 17 -16z m-679 -75 c-3 -21 -10 -87 -17 -148 -13 -131
-36 -191 -74 -201 -41 -10 -51 16 -15 37 16 10 34 27 39 38 11 20 25 110 36
239 5 54 11 72 22 72 11 0 14 -9 9 -37z m174 -2 c14 -8 36 -27 50 -42 24 -25
25 -28 13 -80 -28 -121 -63 -345 -74 -475 -12 -134 -27 -207 -21 -101 3 63
-12 45 -23 -26 -10 -75 -40 -134 -77 -157 -28 -17 -49 -20 -133 -19 -163 2
-155 -3 -192 114 -42 134 -63 230 -63 288 l0 49 31 -26 c39 -33 99 -35 148 -5
36 22 70 57 71 74 0 6 15 19 33 30 47 29 66 79 83 212 21 175 23 181 42 185
30 6 86 -4 112 -21z m616 -13 c62 -42 87 -85 88 -152 1 -101 -70 -176 -168
-176 -154 0 -246 200 -138 303 70 67 143 75 218 25z m-268 -54 c-28 -47 -28
-125 0 -179 40 -79 111 -125 193 -125 105 0 181 64 199 167 7 45 8 46 10 13 6
-88 -22 -143 -93 -184 -88 -52 -191 -44 -267 21 -92 79 -111 191 -50 291 27
44 35 41 8 -4z m-754 -220 c22 -8 20 -27 -4 -49 -25 -23 -26 -95 -1 -96 9 0 3
-5 -13 -11 -26 -9 -32 -8 -48 12 -11 14 -18 39 -18 65 0 35 5 48 26 64 29 23
34 24 58 15z m1492 -35 c64 -44 134 -135 164 -213 8 -21 3 -28 -45 -62 -58
-42 -80 -70 -45 -59 43 14 67 -125 35 -202 -35 -83 -90 -113 -207 -113 -137 0
-287 48 -341 108 -49 54 -37 186 28 319 51 103 129 166 241 194 27 7 59 23 71
36 29 30 45 29 99 -8z m-2593 -63 c41 -17 97 -77 79 -83 -32 -12 -110 -84
-125 -116 -10 -19 -17 -56 -17 -81 0 -40 -3 -46 -20 -46 -33 0 -77 27 -107 67
-24 31 -28 46 -28 98 0 52 4 67 29 99 30 39 94 75 134 76 12 0 37 -6 55 -14z
m226 -117 c36 -13 51 -35 51 -78 0 -24 -13 -46 -55 -91 -57 -62 -62 -79 -46
-137 12 -41 3 -47 -54 -38 -33 4 -57 17 -91 49 -45 40 -48 46 -52 103 -7 94
40 157 140 188 54 17 68 18 107 4z m391 -119 c-12 -16 -23 -30 -25 -30 -9 0 9
36 23 48 25 19 25 14 2 -18z m1464 -10 c14 0 17 -5 12 -22 -4 -13 -10 -48 -13
-79 -11 -106 32 -181 129 -228 l61 -29 -65 -7 c-148 -16 -199 30 -234 213 -8
41 -14 100 -14 131 l0 58 53 -18 c28 -10 60 -18 71 -19z m1710 -24 c-34 -15
-49 -49 -34 -77 18 -32 102 -50 141 -29 25 14 24 28 -6 73 -24 34 -24 37 -6
37 10 0 49 -9 86 -21 60 -18 65 -22 49 -33 -16 -12 -17 -18 -6 -55 17 -55 50
-75 118 -74 49 1 53 0 44 -16 -7 -14 1 -27 40 -66 27 -27 51 -47 53 -44 2 2 9
13 14 23 10 18 12 17 26 -10 28 -56 30 -74 9 -74 -25 0 -32 -18 -32 -80 0 -40
5 -52 32 -79 17 -17 38 -31 45 -31 21 0 26 -46 13 -132 -27 -185 -83 -303
-199 -418 -78 -78 -233 -181 -276 -184 -13 0 -21 -4 -19 -7 2 -4 -15 -13 -39
-22 -274 -99 -498 -111 -787 -40 -109 27 -134 38 -123 56 3 5 1 7 -4 4 -13 -8
-36 17 -25 27 4 4 0 6 -8 4 -9 -2 -14 5 -15 19 0 12 -3 25 -7 29 -4 3 -6 -3
-3 -15 2 -11 2 -21 0 -21 -3 0 -56 38 -118 84 -103 76 -115 88 -120 122 -4 20
-24 78 -46 128 -61 142 -64 128 36 160 49 16 130 48 182 72 78 36 97 42 109
32 13 -11 15 -10 8 7 -6 16 -5 17 5 8 21 -21 -7 -44 -38 -32 -23 8 -24 8 -13
-6 7 -8 10 -22 6 -30 -3 -9 -2 -13 4 -10 13 8 13 -1 -1 -28 -10 -18 -7 -17 16
6 36 35 47 34 76 -5 13 -18 44 -54 68 -80 33 -37 47 -46 57 -37 10 8 11 5 1
-20 -11 -29 -9 -32 38 -73 27 -24 62 -49 79 -56 36 -15 80 -8 73 12 -4 9 0 12
13 9 10 -3 20 -14 22 -26 2 -11 10 -22 18 -24 10 -3 11 -2 4 4 -14 10 -14 43
0 43 6 0 5 4 -3 9 -8 5 -21 7 -30 4 -13 -4 -13 -3 -2 5 10 7 33 1 81 -22 37
-17 66 -34 64 -37 -2 -3 -18 -4 -36 -3 l-33 3 30 -8 30 -9 -28 -1 c-16 0 -26
-5 -23 -10 3 -5 16 -7 28 -3 14 3 19 2 14 -6 -4 -7 -1 -12 10 -12 14 0 15 2 3
16 -12 15 -11 16 9 10 12 -3 31 -8 41 -11 11 -3 22 -11 24 -18 2 -7 3 -4 2 5
-2 9 2 19 9 22 6 3 2 4 -9 4 -45 -2 -69 2 -59 11 5 6 26 6 54 0 66 -16 205 -5
272 21 76 28 169 99 207 157 40 60 71 160 71 229 0 29 -10 84 -22 121 -29 89
-111 178 -199 218 -204 91 -432 -40 -432 -250 -1 -174 185 -285 342 -205 48
24 61 40 68 84 7 44 -19 109 -53 131 -13 9 -24 24 -24 34 0 27 -10 51 -22 51
-6 0 -8 -14 -6 -31 4 -25 0 -33 -23 -45 -27 -13 -109 -122 -109 -143 0 -5 8
-12 18 -14 12 -3 13 -5 2 -6 -24 -2 -82 38 -74 51 4 7 3 8 -4 4 -12 -7 -38 32
-28 42 3 3 6 0 6 -6 0 -7 3 -11 8 -10 4 0 15 -2 24 -6 30 -14 53 -2 72 37 18
38 18 38 -5 63 -12 13 -28 24 -36 24 -7 0 -13 5 -13 10 0 6 -4 10 -10 10 -5 0
-7 -7 -4 -15 4 -8 1 -15 -6 -15 -8 0 -10 8 -7 21 4 15 2 19 -9 15 -50 -19 36
80 91 105 22 10 61 19 87 19 47 0 47 0 54 -37 4 -21 15 -50 25 -64 16 -23 28
-27 95 -34 l76 -7 24 -51 c33 -71 33 -163 0 -232 -12 -27 -31 -57 -41 -65 -11
-8 -16 -10 -12 -4 4 7 -2 23 -13 37 -18 22 -23 24 -63 14 -37 -8 -44 -14 -54
-46 -6 -20 -9 -38 -6 -41 2 -3 26 -5 53 -5 39 0 46 -3 37 -13 -30 -37 -170
-82 -253 -82 -54 0 -105 10 -99 20 3 5 -3 6 -13 3 -19 -4 -132 40 -132 53 0 3
6 4 13 1 11 -4 12 4 4 44 -12 63 -34 82 -81 74 -36 -7 -45 -18 -25 -31 6 -3
16 0 21 7 6 10 7 6 3 -11 l-6 -25 20 24 c12 13 21 18 21 12 0 -7 4 -10 9 -6
15 9 23 -13 11 -32 -10 -16 -10 -15 -5 4 6 22 -7 26 -33 10 -17 -11 -6 -25 31
-40 24 -10 28 -15 15 -20 -27 -10 -131 109 -159 180 -31 82 -33 223 -2 313 32
95 90 193 147 250 57 56 153 118 198 127 16 3 46 12 66 19 20 7 71 13 112 13
72 0 74 0 44 -13z m-2797 -53 c-3 -10 -5 -2 -5 17 0 19 2 27 5 18 2 -10 2 -26
0 -35z m10 -95 c-2 -13 -4 -3 -4 22 0 25 2 35 4 23 2 -13 2 -33 0 -45z m473
-108 c0 -71 -3 -130 -7 -130 -5 0 -7 58 -5 130 2 71 5 130 8 130 2 0 4 -58 4
-130z m-463 28 c-2 -13 -4 -5 -4 17 -1 22 1 32 4 23 2 -10 2 -28 0 -40z m10
-75 c-3 -10 -5 -2 -5 17 0 19 2 27 5 18 2 -10 2 -26 0 -35z m38 -74 c19 -7 19
-8 -1 -8 -22 -1 -35 17 -33 47 1 10 4 7 8 -7 3 -13 15 -28 26 -32z m58 -16
c-7 -2 -19 -2 -25 0 -7 3 -2 5 12 5 14 0 19 -2 13 -5z m50 -10 c-7 -2 -19 -2
-25 0 -7 3 -2 5 12 5 14 0 19 -2 13 -5z m3184 -15 c-3 -8 -6 -5 -6 6 -1 11 2
17 5 13 3 -3 4 -12 1 -19z m-3109 5 c-10 -2 -26 -2 -35 0 -10 3 -2 5 17 5 19
0 27 -2 18 -5z m80 -10 c-10 -2 -26 -2 -35 0 -10 3 -2 5 17 5 19 0 27 -2 18
-5z m130 -10 c-15 -2 -42 -2 -60 0 -18 2 -6 4 27 4 33 0 48 -2 33 -4z m2467
-21 c-3 -3 -11 0 -18 7 -9 10 -8 11 6 5 10 -3 15 -9 12 -12z m8 -19 c-7 -2
-19 -2 -25 0 -7 3 -2 5 12 5 14 0 19 -2 13 -5z m-401 -55 c-8 -8 -12 -9 -12
-1 0 6 -3 20 -6 30 -7 17 -6 17 12 1 14 -14 16 -20 6 -30z m-25 -40 c-2 -13
-4 -5 -4 17 -1 22 1 32 4 23 2 -10 2 -28 0 -40z m263 -54 c0 -2 -11 -15 -24
-29 -26 -28 -45 -19 -27 12 6 10 11 12 11 6 0 -7 5 -13 11 -13 6 0 9 6 6 13
-3 8 1 14 9 14 8 0 14 -2 14 -3z m-66 -66 c-3 -4 -15 -8 -27 -8 -15 0 -18 3
-9 8 17 11 43 11 36 0z m-2717 -110 c-3 -7 -5 -2 -5 12 0 14 2 19 5 13 2 -7 2
-19 0 -25z m2135 -28 c4 -3 -1 -6 -12 -6 -10 0 -17 2 -14 5 2 3 -8 18 -23 35
l-28 31 35 -30 c19 -16 38 -32 42 -35z m-1394 -21 c64 -17 120 -36 124 -43 4
-6 8 -35 8 -65 0 -47 -4 -58 -39 -100 -21 -25 -50 -66 -65 -90 l-28 -43 -15
23 c-9 13 -29 38 -44 54 -23 25 -30 44 -39 117 -6 48 -14 108 -19 133 -5 25
-7 45 -4 45 2 0 57 -14 121 -31z m-731 -1 c-3 -8 -6 -5 -6 6 -1 11 2 17 5 13
3 -3 4 -12 1 -19z m2154 -12 c-6 -7 -7 -17 -3 -21 4 -5 1 -5 -6 -1 -9 6 -10
11 -3 20 6 7 7 17 3 21 -4 5 -1 5 6 1 9 -6 10 -11 3 -20z m33 -4 c3 -5 -1 -9
-9 -9 -8 0 -12 4 -9 9 3 4 7 8 9 8 2 0 6 -4 9 -8z m-1151 -32 c-7 -28 -13 -25
-13 6 0 14 4 23 9 20 5 -3 7 -15 4 -26z m1237 -37 c0 -3 -7 0 -16 8 -13 10
-17 10 -26 -2 -8 -12 -9 -12 -5 1 2 8 -3 24 -12 34 -9 12 -1 8 22 -8 20 -16
37 -31 37 -33z m-2263 15 c-3 -8 -6 -5 -6 6 -1 11 2 17 5 13 3 -3 4 -12 1 -19z
m56 -15 c-7 -2 -19 -2 -25 0 -7 3 -2 5 12 5 14 0 19 -2 13 -5z m1085 -12 c-4
9 -1 16 7 16 8 0 13 -4 12 -10 -1 -5 20 -11 48 -13 27 -3 52 -8 55 -11 8 -9
-198 7 -223 17 -16 7 -10 8 26 5 36 -4 46 -2 41 8 -4 6 3 3 16 -8 18 -15 22
-16 18 -4z m149 3 c-3 -3 -12 -4 -19 -1 -8 3 -5 6 6 6 11 1 17 -2 13 -5z m978
-34 c3 -6 -1 -7 -9 -4 -18 7 -21 14 -7 14 6 0 13 -4 16 -10z m-2115 -25 c7 -9
10 -18 6 -22 -3 -3 -6 -1 -6 6 0 7 -4 9 -10 6 -5 -3 -10 -1 -10 4 0 6 -3 11
-8 11 -4 0 -7 -19 -7 -42 0 -33 4 -43 16 -42 9 1 16 -5 16 -12 0 -17 -3 -17
-28 -4 -28 15 -28 110 0 110 10 0 24 -7 31 -15z m2110 1 c0 -3 -4 -8 -10 -11
-5 -3 -10 -1 -10 4 0 6 5 11 10 11 6 0 10 -2 10 -4z m1307 -83 c67 -31 91
-103 122 -364 36 -298 45 -441 46 -734 0 -272 -1 -294 -22 -360 -74 -235 -267
-341 -560 -308 -134 15 -205 43 -269 107 -85 85 -120 207 -111 391 8 182 65
320 186 448 110 116 219 157 372 137 45 -5 84 -8 86 -6 3 2 -8 124 -22 270
-28 279 -28 330 5 384 32 53 100 67 167 35z m-2467 -57 c0 -3 -4 -8 -10 -11
-5 -3 -10 -1 -10 4 0 6 5 11 10 11 6 0 10 -2 10 -4z m-1355 -86 c22 -5 63 -19
90 -31 l50 -23 -30 -6 c-37 -8 -68 -24 -85 -44 -17 -21 -27 -20 -35 4 -9 28
-95 70 -158 77 l-52 7 40 12 c48 15 126 17 180 4z m2033 -55 c63 -19 119 -66
143 -120 37 -81 19 -125 -65 -160 -86 -36 -368 -36 -534 0 -109 24 -109 24
-88 78 39 103 117 172 226 201 75 20 252 20 318 1z m-2118 -18 c19 -8 45 -26
58 -40 23 -25 23 -25 7 -73 -10 -27 -20 -74 -24 -104 l-6 -55 -95 3 c-161 5
-330 57 -330 102 0 54 52 132 115 171 26 17 45 19 135 15 65 -2 118 -9 140
-19z m291 -93 c75 -72 99 -232 115 -771 8 -239 -1 -322 -40 -408 -62 -137
-229 -217 -451 -218 -296 -2 -420 145 -402 478 13 242 100 407 254 481 75 36
206 45 279 20 26 -9 49 -16 51 -16 2 0 1 74 -3 164 -7 164 -7 165 19 218 43
88 118 110 178 52z m3183 -1 c3 -21 6 -57 6 -80 0 -38 -3 -43 -27 -49 -53 -11
-98 -27 -137 -46 l-39 -20 -49 49 -49 49 83 32 c46 17 108 47 138 66 30 19 58
34 61 35 4 1 9 -16 13 -36z m-5061 -46 c54 -32 90 -75 114 -138 15 -40 17
-104 18 -639 2 -564 1 -597 -17 -637 -23 -50 -81 -83 -147 -83 -76 0 -124 39
-149 120 -14 47 -17 103 -17 405 0 224 -4 351 -10 354 -17 7 -74 -121 -101
-225 -20 -79 -27 -138 -34 -292 -8 -180 -10 -195 -34 -236 -36 -61 -98 -90
-183 -84 -66 4 -100 21 -135 69 -11 14 -34 99 -58 214 -49 231 -84 360 -121
444 -25 54 -31 62 -44 51 -18 -15 -47 -106 -72 -222 -14 -67 -17 -139 -18
-374 -2 -268 -3 -294 -21 -324 -31 -54 -67 -74 -137 -78 -115 -6 -157 46 -178
224 -15 127 -15 517 0 654 58 522 190 763 420 764 85 0 134 -17 189 -67 66
-62 117 -179 157 -361 3 -15 8 -26 10 -24 3 2 16 44 30 94 64 220 167 360 304
411 60 22 179 12 234 -20z m1232 -115 c-3 -3 -11 0 -18 7 -9 10 -8 11 6 5 10
-3 15 -9 12 -12z m172 -48 c-3 -3 -12 -4 -19 -1 -8 3 -5 6 6 6 11 1 17 -2 13
-5z m4982 -49 c234 -56 344 -225 358 -552 11 -266 -51 -459 -192 -592 -87 -83
-192 -121 -329 -121 -187 0 -330 94 -415 274 -56 116 -75 213 -75 371 2 337
127 560 346 619 70 19 227 19 307 1z m-1773 -66 c91 -46 139 -155 114 -258
-27 -114 -126 -144 -242 -72 -27 17 -53 31 -58 31 -32 0 -16 -250 26 -420 36
-148 41 -226 16 -269 -48 -88 -205 -96 -254 -13 -38 64 -87 408 -95 664 -5
164 -4 194 12 234 29 76 105 105 177 68 28 -15 31 -14 45 5 44 64 165 78 259
30z m-3716 -10 c77 -36 115 -71 147 -137 25 -51 28 -68 28 -158 0 -96 -2 -103
-38 -176 -83 -168 -250 -257 -460 -245 -100 5 -103 -5 -14 -43 47 -20 62 -22
152 -16 55 3 123 10 152 14 102 16 158 -28 158 -123 0 -61 -18 -91 -83 -142
-138 -106 -417 -105 -565 3 -91 66 -138 160 -157 309 -40 320 127 636 384 727
77 28 222 21 296 -13z m3090 -7 c40 -41 44 -97 26 -360 -9 -122 -16 -298 -16
-390 0 -191 -9 -224 -70 -254 -102 -51 -211 10 -225 126 l-7 55 -39 -50 c-68
-85 -148 -125 -274 -136 -96 -8 -202 11 -258 47 -76 48 -122 144 -138 289 -16
138 9 277 74 406 41 83 153 192 243 236 66 33 72 34 189 34 109 0 125 -2 170
-25 30 -16 60 -41 75 -64 l24 -37 28 56 c49 95 139 126 198 67z m-1638 -21
c34 -38 37 -89 13 -221 -9 -47 -19 -144 -22 -216 -7 -145 2 -191 43 -223 51
-40 158 -36 208 8 10 9 28 34 40 56 20 38 21 55 22 285 1 200 4 251 16 275 27
52 54 68 116 73 51 4 62 1 89 -22 17 -14 38 -44 47 -67 39 -97 45 -443 11
-587 -44 -183 -150 -291 -324 -328 -126 -26 -260 -14 -352 32 -151 76 -219
298 -190 623 24 268 77 358 205 348 40 -4 55 -10 78 -36z"/>
<path d="M4954 8360 c-68 -14 -196 -68 -264 -112 -82 -52 -290 -259 -319 -315
-12 -24 -19 -43 -15 -43 4 0 24 20 45 44 21 24 66 67 99 96 l60 52 -22 -49
c-34 -76 -48 -142 -48 -223 0 -134 41 -244 125 -338 43 -48 45 -52 23 -52 -12
0 -40 4 -60 9 -57 13 -46 -5 18 -28 151 -57 442 -68 571 -22 236 84 361 278
333 517 -35 312 -277 517 -546 464z m-289 -251 c-26 -73 -36 -162 -25 -220 46
-244 291 -415 544 -380 39 6 91 17 116 25 l45 16 -33 -29 c-105 -90 -290 -133
-498 -116 -86 7 -90 8 -126 46 -157 165 -190 377 -91 587 22 46 68 112 78 112
2 0 -2 -19 -10 -41z m299 20 c21 -17 26 -29 26 -66 0 -38 -5 -50 -34 -79 -29
-29 -41 -34 -83 -34 -88 0 -113 41 -73 119 39 77 109 103 164 60z m329 -261
c37 -44 5 -128 -49 -128 -37 0 -84 47 -84 83 0 40 9 53 40 66 33 13 71 5 93
-21z"/>
<path d="M4035 8284 l-30 -26 33 22 c17 12 32 23 32 26 0 7 -4 5 -35 -22z"/>
<path d="M3499 7903 c-153 -208 -209 -304 -209 -356 0 -13 28 31 65 102 36 68
96 167 133 220 76 107 85 121 79 121 -2 0 -32 -39 -68 -87z"/>
<path d="M5844 7716 c-3 -8 -4 -25 -2 -38 2 -18 10 -24 36 -26 27 -3 34 1 42
23 8 20 7 30 -4 41 -19 18 -65 18 -72 0z"/>
<path d="M5981 7574 c0 -11 3 -14 6 -6 3 7 2 16 -1 19 -3 4 -6 -2 -5 -13z"/>
<path d="M5820 7545 c-10 -12 -9 -20 4 -40 31 -47 91 -20 68 30 -13 29 -52 34
-72 10z m58 -23 c3 -17 -2 -22 -18 -22 -25 0 -38 29 -19 41 20 13 34 6 37 -19z"/>
<path d="M5850 7520 c0 -5 5 -10 10 -10 6 0 10 5 10 10 0 6 -4 10 -10 10 -5 0
-10 -4 -10 -10z"/>
<path d="M5971 7535 c1 -19 18 -51 18 -35 0 8 -4 22 -9 30 -5 8 -9 11 -9 5z"/>
<path d="M3751 7442 c-17 -27 -31 -54 -31 -60 0 -8 26 -12 80 -12 79 0 80 0
80 25 0 28 -45 80 -76 90 -18 4 -27 -3 -53 -43z"/>
<path d="M5415 7333 c-147 -75 -297 -110 -424 -99 -49 5 -131 25 -229 57 -85
28 -155 49 -158 47 -6 -7 153 -93 216 -119 169 -67 259 -75 386 -33 116 37
261 126 278 169 3 8 4 15 3 15 -1 -1 -33 -17 -72 -37z"/>
<path d="M5928 7333 c7 -3 16 -2 19 1 4 3 -2 6 -13 5 -11 0 -14 -3 -6 -6z"/>
<path d="M5990 7180 c0 -13 28 -25 38 -16 3 4 0 11 -8 16 -20 13 -30 12 -30 0z"/>
<path d="M5453 5773 c9 -2 25 -2 35 0 9 3 1 5 -18 5 -19 0 -27 -2 -17 -5z"/>
<path d="M3257 5812 c-42 -42 -77 -81 -77 -85 0 -5 38 26 85 69 79 71 97 94
77 94 -4 0 -42 -35 -85 -78z"/>
<path d="M3080 5625 c-30 -30 -49 -55 -43 -55 6 0 32 25 58 55 25 30 45 55 43
55 -2 0 -28 -25 -58 -55z"/>
<path d="M3407 5612 c-60 -61 -61 -71 -1 -15 26 24 51 43 55 43 5 0 9 5 9 10
0 19 -16 10 -63 -38z"/>
<path d="M3137 5583 c-31 -32 -54 -60 -51 -62 2 -3 30 21 61 52 31 31 54 59
51 62 -3 3 -30 -20 -61 -52z"/>
<path d="M3446 5560 c-64 -68 -58 -76 9 -10 30 30 55 56 55 57 0 13 -25 -5
-64 -47z"/>
<path d="M3190 5525 c-30 -30 -52 -57 -49 -60 3 -2 29 20 59 50 30 30 52 57
49 60 -3 2 -29 -20 -59 -50z"/>
<path d="M3485 5500 c-27 -27 -45 -50 -39 -50 5 0 32 23 59 50 27 28 45 50 39
50 -5 0 -32 -22 -59 -50z"/>
<path d="M3235 5470 c-32 -33 -57 -62 -54 -64 3 -3 32 21 64 54 32 33 57 62
54 64 -3 3 -32 -21 -64 -54z"/>
<path d="M3530 5445 c-30 -30 -52 -56 -49 -59 2 -2 30 20 63 49 32 29 54 55
49 58 -5 3 -34 -18 -63 -48z"/>
<path d="M3575 5400 c-32 -33 -57 -62 -54 -64 4 -4 129 112 129 120 0 14 -23
-3 -75 -56z"/>
<path d="M3275 5400 c-27 -27 -47 -52 -44 -55 3 -2 30 20 59 50 30 30 50 55
44 55 -5 0 -32 -22 -59 -50z"/>
<path d="M3325 5350 c-27 -27 -47 -52 -44 -55 3 -2 27 18 54 45 27 27 47 52
44 55 -3 2 -27 -18 -54 -45z"/>
<path d="M3375 5295 c-33 -30 -58 -56 -55 -58 3 -3 32 18 65 48 33 29 58 55
55 58 -3 3 -32 -19 -65 -48z"/>
<path d="M3416 5250 c-33 -33 -56 -63 -52 -69 10 -15 26 -14 26 1 0 7 26 38
57 70 32 32 51 58 43 57 -8 -1 -41 -27 -74 -59z"/>
<path d="M3710 5211 c-25 -21 -43 -41 -40 -44 3 -3 27 15 54 39 28 24 46 44
40 44 -5 0 -29 -18 -54 -39z"/>
<path d="M3575 5220 c-3 -5 -1 -10 4 -10 6 0 11 5 11 10 0 6 -2 10 -4 10 -3 0
-8 -4 -11 -10z"/>
<path d="M3700 5095 c-63 -63 -110 -115 -105 -115 6 0 62 52 125 115 63 63
110 115 105 115 -6 0 -62 -52 -125 -115z"/>
<path d="M3574 5077 c-53 -56 -69 -77 -56 -77 11 0 106 109 100 115 -2 3 -22
-14 -44 -38z"/>
<path d="M5223 5798 c-23 -11 -31 -28 -13 -28 6 0 10 5 10 10 0 6 7 10 15 10
8 0 15 5 15 10 0 12 1 12 -27 -2z"/>
<path d="M5323 5390 c-29 -12 -63 -67 -63 -103 0 -61 62 -127 118 -127 66 0
122 58 122 125 0 30 -8 45 -39 76 -32 32 -45 39 -77 38 -22 0 -49 -4 -61 -9z
m111 -42 c40 -35 43 -78 11 -116 -70 -83 -195 4 -144 99 22 42 94 51 133 17z"/>
<path d="M5345 5300 c-8 -14 3 -30 21 -30 8 0 14 9 14 20 0 21 -24 28 -35 10z"/>
<path d="M6700 4480 c0 -5 5 -10 11 -10 5 0 7 5 4 10 -3 6 -8 10 -11 10 -2 0
-4 -4 -4 -10z"/>
<path d="M6630 4428 c-16 -17 -27 -35 -24 -40 6 -10 88 -11 98 0 4 4 13 7 19
7 7 0 13 15 15 33 3 31 2 33 -17 23 -13 -7 -22 -8 -26 -1 -11 18 -36 10 -65
-22z"/>
<path d="M7010 4366 c0 -31 -4 -32 -39 -6 l-28 19 -26 -27 c-19 -20 -24 -31
-17 -42 5 -8 10 -11 10 -6 0 5 6 4 13 -1 6 -6 26 -13 43 -16 28 -5 33 -3 42
21 20 51 23 70 12 77 -6 4 -10 -4 -10 -19z"/>
<path d="M6644 4205 c-28 -19 -57 -81 -49 -104 5 -15 25 -30 70 -50 6 -2 4 3
-2 11 -21 24 -27 100 -11 122 18 23 51 15 66 -17 6 -12 11 -16 11 -9 1 14 -43
62 -56 62 -5 0 -18 -7 -29 -15z"/>
<path d="M7250 4200 c0 -5 5 -10 11 -10 5 0 7 5 4 10 -3 6 -8 10 -11 10 -2 0
-4 -4 -4 -10z"/>
<path d="M7220 4189 c0 -5 5 -7 10 -4 6 3 10 8 10 11 0 2 -4 4 -10 4 -5 0 -10
-5 -10 -11z"/>
<path d="M7232 4124 c10 -10 20 -16 22 -13 3 3 -5 11 -17 18 -21 13 -21 12 -5
-5z"/>
<path d="M7696 4023 c-6 -14 -5 -15 5 -6 7 7 10 15 7 18 -3 3 -9 -2 -12 -12z"/>
<path d="M7625 3987 c-4 -10 -5 -21 -1 -24 10 -10 18 4 13 24 -4 17 -4 17 -12
0z"/>
<path d="M6825 3950 c-8 -16 -15 -40 -15 -54 0 -21 6 -26 33 -30 45 -8 87 -3
87 10 0 20 -60 104 -75 104 -8 0 -21 -13 -30 -30z"/>
<path d="M6270 3955 c-7 -8 -8 -15 -2 -15 5 0 15 7 22 15 7 8 8 15 2 15 -5 0
-15 -7 -22 -15z"/>
<path d="M7025 3962 c-6 -4 -21 -24 -33 -46 -22 -36 -22 -40 -6 -57 23 -25
102 -27 111 -3 3 10 0 22 -8 28 -8 6 -15 22 -17 35 -2 24 -19 51 -31 51 -3 0
-11 -4 -16 -8z"/>
<path d="M7600 3931 c0 -12 4 -19 10 -16 6 3 10 1 10 -4 0 -6 -5 -11 -12 -11
-20 0 4 -17 33 -24 30 -7 49 19 29 38 -8 8 -9 6 -5 -6 6 -14 2 -18 -14 -18
-12 0 -21 6 -21 13 0 6 -7 21 -15 31 -15 19 -15 19 -15 -3z"/>
<path d="M6312 3931 c-11 -7 -11 -9 0 -14 9 -3 15 1 15 9 0 8 -1 14 -1 14 -1
0 -7 -4 -14 -9z"/>
<path d="M6261 3914 c0 -11 3 -14 6 -6 3 7 2 16 -1 19 -3 4 -6 -2 -5 -13z"/>
<path d="M6290 3890 c0 -5 4 -10 9 -10 6 0 13 5 16 10 3 6 -1 10 -9 10 -9 0
-16 -4 -16 -10z"/>
<path d="M6710 3757 c0 -7 9 -13 21 -14 17 -2 18 1 9 13 -15 17 -30 18 -30 1z"/>
<path d="M5990 3748 c0 -8 10 -20 23 -27 12 -6 14 -9 5 -7 -11 3 -16 -1 -15
-13 0 -11 7 -17 13 -14 23 9 23 31 -2 54 -18 17 -24 19 -24 7z"/>
<path d="M6067 3683 c-4 -3 -2 -12 4 -19 7 -8 7 -14 -1 -19 -5 -3 -13 0 -16 9
-3 8 -13 17 -22 21 -12 4 -10 -1 6 -18 19 -20 44 -27 71 -18 2 0 -6 9 -17 20
-12 10 -19 21 -15 25 3 3 4 6 1 6 -2 0 -8 -3 -11 -7z"/>
<path d="M6137 3619 c7 -7 15 -10 18 -7 3 3 -2 9 -12 12 -14 6 -15 5 -6 -5z"/>
<path d="M6100 3616 c0 -2 7 -7 16 -10 8 -3 12 -2 9 4 -6 10 -25 14 -25 6z"/>
<path d="M7563 2685 c-82 -42 -130 -110 -152 -217 -14 -64 -7 -115 21 -171 25
-50 81 -76 164 -77 82 0 139 30 179 95 l30 49 -1 153 c-1 188 0 186 -112 191
-67 3 -84 0 -129 -23z"/>
<path d="M3861 2648 c-58 -39 -76 -80 -76 -178 0 -104 19 -144 85 -178 38 -20
55 -23 113 -18 79 6 122 27 155 77 20 29 23 44 20 104 -4 83 -28 136 -82 179
-32 27 -47 31 -109 34 -62 3 -77 1 -106 -20z"/>
<path d="M8590 2794 c-47 -20 -68 -41 -95 -94 -63 -126 -58 -345 11 -450 49
-73 153 -100 239 -61 88 40 128 130 129 291 0 113 -15 182 -55 245 -48 76
-146 105 -229 69z"/>
<path d="M3108 2770 c-64 -19 -168 -110 -168 -145 0 -38 136 -48 208 -15 33
15 47 29 63 64 36 82 -10 124 -103 96z"/>
<path d="M5835 2731 c-42 -19 -104 -81 -128 -128 -8 -15 -20 -53 -27 -83 -32
-144 67 -233 224 -200 103 21 181 93 212 196 26 85 20 107 -38 158 -29 25 -67
53 -84 61 -43 20 -110 19 -159 -4z"/>
</g>
</svg>
